<svg width="611" height="373" viewBox="0 0 611 373" fill="none" xmlns="http://www.w3.org/2000/svg">
<g opacity="0.2">
<path d="M794.597 174.164C779.33 216.501 764.846 252.012 748.947 280.568C733.049 309.121 715.776 330.647 694.969 345.086C653.436 373.906 597.343 374.796 508.652 345.681C464.132 331.065 408.105 322.726 350.159 315.783C334.35 313.889 318.398 312.098 302.494 310.313C260.053 305.55 217.947 300.824 179.772 294.261C127.257 285.232 82.457 272.763 54.5961 252.119C40.6972 241.821 31.0669 229.525 26.7591 214.645C22.4501 199.762 23.426 182.153 30.9982 161.154C61.4231 76.783 145.025 -18.0989 243.27 -84.6187C341.553 -151.164 454.052 -189.038 542.254 -160.082C630.938 -130.969 709.248 -89.4572 757.76 -34.2016C806.207 20.979 824.982 89.9034 794.597 174.164Z" stroke="white" stroke-width="2.5"/>
<path d="M848.338 138.754C833.676 179.415 819.766 213.517 804.498 240.939C789.231 268.359 772.647 289.026 752.671 302.887C712.804 330.552 658.95 331.414 573.773 303.452C531.01 289.413 477.195 281.403 421.543 274.735C406.358 272.915 391.038 271.196 375.763 269.482C335.001 264.907 294.564 260.368 257.901 254.065C207.465 245.393 164.448 233.42 137.7 213.6C124.357 203.714 115.116 191.913 110.982 177.634C106.847 163.351 107.782 146.45 115.052 126.29C144.268 45.2704 224.553 -45.8489 318.904 -109.732C413.294 -173.642 521.323 -210.005 606.012 -182.203C691.183 -154.243 766.384 -114.378 812.968 -61.3181C859.487 -8.33354 877.514 57.8452 848.338 138.754Z" stroke="white" stroke-width="2.5"/>
<path d="M927.572 114.155C912.909 154.816 899 188.918 883.732 216.34C868.465 243.761 851.88 264.427 831.905 278.288C792.037 305.953 738.184 306.815 653.007 278.853C610.243 264.814 556.429 256.805 500.777 250.136C485.592 248.317 470.271 246.597 454.996 244.883C414.235 240.308 373.798 235.77 337.135 229.466C286.699 220.795 243.682 208.821 216.934 189.001C203.591 179.115 194.349 167.314 190.215 153.035C186.081 138.753 187.016 121.852 194.286 101.691C223.502 20.6718 303.786 -70.4475 398.138 -134.331C492.528 -198.24 600.557 -234.604 685.246 -206.802C770.416 -178.842 845.618 -138.976 892.202 -85.9167C938.72 -32.9322 956.748 33.2465 927.572 114.155Z" stroke="white" stroke-width="2.5"/>
<path d="M1006.81 89.5559C992.143 130.217 978.233 164.319 962.965 191.741C947.698 219.161 931.114 239.828 911.139 253.689C871.271 281.354 817.418 282.216 732.241 254.254C689.477 240.215 635.663 232.205 580.01 225.537C564.826 223.718 549.505 221.998 534.23 220.284C493.469 215.709 453.032 211.171 416.369 204.867C365.932 196.196 322.915 184.222 296.167 164.402C282.825 154.516 273.583 142.715 269.449 128.436C265.314 114.154 266.249 97.2526 273.52 77.092C302.736 -3.9273 383.02 -95.0466 477.371 -158.93C571.761 -222.84 679.79 -259.203 764.479 -231.401C849.65 -203.441 924.852 -163.576 971.436 -110.516C1017.95 -57.5313 1035.98 8.64742 1006.81 89.5559Z" stroke="white" stroke-width="2.5"/>
<path d="M1086.04 64.9573C1071.38 105.618 1057.47 139.72 1042.2 167.143C1026.93 194.563 1010.35 215.229 990.372 229.09C950.505 256.756 896.651 257.617 811.474 229.655C768.711 215.617 714.896 207.607 659.244 200.938C644.059 199.119 628.739 197.4 613.463 195.685C572.702 191.11 532.265 186.572 495.602 180.268C445.166 171.597 402.149 159.623 375.401 139.804C362.058 129.917 352.817 118.116 348.683 103.838C344.548 89.555 345.483 72.654 352.753 52.4934C381.969 -28.5259 462.254 -119.645 556.605 -183.529C650.995 -247.438 759.024 -283.801 843.713 -256C928.884 -228.039 1004.09 -188.174 1050.67 -135.115C1097.19 -82.1299 1115.22 -15.9512 1086.04 64.9573Z" stroke="white" stroke-width="2.5"/>
<path d="M1165.27 40.3577C1150.61 81.0189 1136.7 115.121 1121.43 142.543C1106.17 169.963 1089.58 190.63 1069.61 204.491C1029.74 232.156 975.885 233.018 890.708 205.056C847.944 191.017 794.13 183.007 738.478 176.339C723.293 174.519 707.972 172.8 692.697 171.086C651.936 166.511 611.499 161.972 574.836 155.669C524.399 146.997 481.383 135.024 454.634 115.204C441.292 105.318 432.05 93.5169 427.916 79.238C423.781 64.9554 424.717 48.0544 431.987 27.8937C461.203 -53.1255 541.487 -144.245 635.839 -208.128C730.228 -272.038 838.257 -308.401 922.947 -280.599C1008.12 -252.639 1083.32 -212.774 1129.9 -159.714C1176.42 -106.73 1194.45 -40.5508 1165.27 40.3577Z" stroke="white" stroke-width="2.5"/>
<path d="M1244.51 15.7595C1229.84 56.4207 1215.93 90.5226 1200.67 117.945C1185.4 145.365 1168.81 166.031 1148.84 179.893C1108.97 207.558 1055.12 208.42 969.941 180.457C927.178 166.419 873.363 158.409 817.711 151.741C802.527 149.921 787.206 148.202 771.931 146.487C731.169 141.913 690.733 137.374 654.07 131.071C603.633 122.399 560.616 110.425 533.868 90.6058C520.526 80.7194 511.284 68.9187 507.15 54.6398C503.015 40.3572 503.95 23.4562 511.22 3.2956C540.437 -77.7237 620.721 -168.843 715.072 -232.727C809.462 -296.636 917.491 -332.999 1002.18 -305.197C1087.35 -277.237 1162.55 -237.372 1209.14 -184.312C1255.65 -131.328 1273.68 -65.149 1244.51 15.7595Z" stroke="white" stroke-width="2.5"/>
<path d="M1323.74 -8.83957C1309.08 31.8216 1295.17 65.9235 1279.9 93.3458C1264.63 120.766 1248.05 141.432 1228.07 155.293C1188.21 182.959 1134.35 183.82 1049.18 155.858C1006.41 141.82 952.597 133.81 896.945 127.142C881.76 125.322 866.44 123.603 851.165 121.888C810.403 117.314 769.966 112.775 733.303 106.472C682.867 97.8 639.85 85.8263 613.102 66.0067C599.759 56.1203 590.518 44.3196 586.384 30.0407C582.249 15.7581 583.184 -1.14289 590.454 -21.3035C619.67 -102.323 699.955 -193.442 794.306 -257.326C888.696 -321.235 996.725 -357.598 1081.41 -329.796C1166.58 -301.836 1241.79 -261.971 1288.37 -208.911C1334.89 -155.927 1352.92 -89.7481 1323.74 -8.83957Z" stroke="white" stroke-width="2.5"/>
<path d="M1402.97 -33.4382C1388.31 7.22299 1374.4 41.3249 1359.13 68.7471C1343.87 96.1673 1327.28 116.834 1307.31 130.695C1267.44 158.36 1213.59 159.222 1128.41 131.26C1085.65 117.221 1031.83 109.211 976.179 102.543C960.994 100.724 945.673 99.0041 930.398 97.2897C889.637 92.7149 849.2 88.1765 812.537 81.873C762.101 73.2014 719.084 61.2276 692.336 41.4081C678.993 31.5217 669.751 19.721 665.618 5.44207C661.483 -8.84051 662.418 -25.7415 669.688 -45.9022C698.904 -126.921 779.188 -218.041 873.54 -281.924C967.93 -345.834 1075.96 -382.197 1160.65 -354.395C1245.82 -326.435 1321.02 -286.57 1367.6 -233.51C1414.12 -180.525 1432.15 -114.347 1402.97 -33.4382Z" stroke="white" stroke-width="2.5"/>
</g>
</svg>
