<svg width="634" height="880" viewBox="0 0 634 880" fill="none" xmlns="http://www.w3.org/2000/svg">
<g opacity="0.2">
<path d="M795.179 405.951C779.911 450.325 765.426 487.548 749.523 517.484C733.62 547.42 716.34 569.991 695.522 585.132C653.979 615.345 597.889 616.273 509.211 585.762C464.687 570.443 408.656 561.702 350.711 554.425C334.901 552.44 318.949 550.563 303.045 548.692C260.604 543.7 218.5 538.747 180.326 531.869C127.811 522.406 83.0193 509.339 55.1654 487.708C41.272 476.918 31.6379 464.032 27.3268 448.425C23.0136 432.81 23.9914 414.336 31.5691 392.312C62.0032 303.857 145.621 204.401 243.87 134.68C342.167 64.926 454.663 25.2412 542.848 55.5827C631.528 86.0942 709.832 129.598 758.342 187.508C806.786 245.339 825.578 317.599 795.179 405.951Z" stroke="#FF4D3E" stroke-width="2.5"/>
<path d="M848.92 368.838C834.257 411.455 820.345 447.203 805.074 475.951C789.802 504.698 773.21 526.369 753.224 540.904C713.346 569.907 659.497 570.805 574.332 541.503C531.564 526.788 477.747 518.392 422.094 511.403C406.909 509.496 391.587 507.694 376.311 505.897C335.551 501.103 295.116 496.346 258.455 489.74C208.019 480.652 165.01 468.103 138.269 447.336C124.932 436.979 115.687 424.611 111.55 409.634C107.41 394.649 108.347 376.917 115.623 355.771C144.848 270.83 225.149 175.317 319.504 108.359C413.907 41.3678 521.934 3.26542 606.606 32.3981C691.772 61.7008 766.968 103.48 813.55 159.087C860.066 214.617 878.11 283.999 848.92 368.838Z" stroke="#FF4D3E" stroke-width="2.5"/>
<path d="M928.154 343.056C913.491 385.674 899.579 421.421 884.307 450.169C869.036 478.916 852.444 500.587 832.458 515.123C792.58 544.125 738.731 545.023 653.566 515.721C610.798 501.006 556.98 492.611 501.328 485.622C486.142 483.715 470.821 481.913 455.545 480.116C414.785 475.321 374.35 470.565 337.688 463.958C287.252 454.87 244.244 442.322 217.503 421.555C204.166 411.198 194.92 398.829 190.783 383.853C186.644 368.868 187.581 351.135 194.857 329.989C224.082 245.048 304.382 149.536 398.738 82.5777C493.141 15.5863 601.167 -22.5161 685.84 6.61661C771.006 35.9193 846.202 77.6982 892.783 133.306C939.3 188.836 957.344 258.218 928.154 343.056Z" stroke="#FF4D3E" stroke-width="2.5"/>
<path d="M1007.39 317.275C992.724 359.892 978.813 395.64 963.541 424.388C948.27 453.135 931.677 474.806 911.692 489.341C871.814 518.344 817.964 519.242 732.8 489.94C690.032 475.225 636.214 466.829 580.562 459.84C565.376 457.933 550.054 456.131 534.779 454.334C494.018 449.54 453.583 444.783 416.922 438.177C366.486 429.089 323.478 416.541 296.736 395.774C283.399 385.416 274.154 373.048 270.017 358.071C265.878 343.086 266.815 325.354 274.09 304.208C303.316 219.267 383.616 123.754 477.972 56.7963C572.375 -10.1951 680.401 -48.2975 765.073 -19.1648C850.239 10.1379 925.435 51.9168 972.017 107.524C1018.53 163.054 1036.58 232.436 1007.39 317.275Z" stroke="#FF4D3E" stroke-width="2.5"/>
<path d="M1086.62 291.494C1071.96 334.111 1058.05 369.858 1042.77 398.606C1027.5 427.353 1010.91 449.024 990.926 463.56C951.047 492.562 897.198 493.46 812.033 464.158C769.266 449.443 715.448 441.048 659.796 434.059C644.61 432.152 629.288 430.35 614.012 428.553C573.252 423.758 532.817 419.002 496.156 412.396C445.72 403.307 402.711 390.759 375.97 369.992C362.633 359.635 353.388 347.267 349.251 332.29C345.111 317.305 346.049 299.572 353.324 278.426C382.549 193.485 462.85 97.9726 557.205 31.0148C651.609 -35.9766 759.635 -74.079 844.307 -44.9463C929.473 -15.6436 1004.67 26.1353 1051.25 81.7429C1097.77 137.273 1115.81 206.655 1086.62 291.494Z" stroke="#FF4D3E" stroke-width="2.5"/>
<path d="M1165.85 265.712C1151.19 308.329 1137.28 344.077 1122.01 372.825C1106.74 401.572 1090.14 423.243 1070.16 437.778C1030.28 466.781 976.432 467.679 891.267 438.377C848.499 423.662 794.681 415.266 739.029 408.278C723.843 406.37 708.522 404.568 693.246 402.771C652.486 397.977 612.051 393.22 575.389 386.614C524.953 377.526 481.945 364.978 455.204 344.211C441.867 333.853 432.621 321.485 428.484 306.508C424.345 291.523 425.282 273.791 432.558 252.645C461.783 167.704 542.083 72.1911 636.439 5.23331C730.842 -61.7581 838.869 -99.8605 923.541 -70.7278C1008.71 -41.4251 1083.9 0.353769 1130.48 55.9614C1177 111.491 1195.04 180.873 1165.85 265.712Z" stroke="#FF4D3E" stroke-width="2.5"/>
<path d="M1245.09 239.931C1230.43 282.548 1216.51 318.295 1201.24 347.043C1185.97 375.79 1169.38 397.461 1149.39 411.997C1109.51 440.999 1055.67 441.897 970.501 412.595C927.733 397.88 873.915 389.485 818.263 382.496C803.077 380.589 787.756 378.787 772.48 376.99C731.719 372.195 691.284 367.439 654.623 360.833C604.187 351.744 561.179 339.196 534.437 318.429C521.1 308.072 511.855 295.704 507.718 280.727C503.579 265.742 504.516 248.009 511.791 226.863C541.017 141.922 621.317 46.4096 715.673 -20.5482C810.076 -87.5396 918.102 -125.642 1002.77 -96.5093C1087.94 -67.2066 1163.14 -25.4277 1209.72 30.1799C1256.23 85.7099 1274.28 155.092 1245.09 239.931Z" stroke="#FF4D3E" stroke-width="2.5"/>
<path d="M1324.32 214.149C1309.66 256.766 1295.75 292.514 1280.48 321.262C1265.2 350.009 1248.61 371.68 1228.63 386.215C1188.75 415.218 1134.9 416.116 1049.73 386.814C1006.97 372.099 953.148 363.703 897.496 356.715C882.311 354.807 866.989 353.005 851.713 351.208C810.953 346.414 770.518 341.657 733.857 335.051C683.421 325.963 640.412 313.415 613.671 292.648C600.334 282.29 591.089 269.922 586.952 254.945C582.812 239.96 583.749 222.228 591.025 201.082C620.25 116.141 700.551 20.6281 794.906 -46.3297C889.309 -113.321 997.336 -151.423 1082.01 -122.291C1167.17 -92.9881 1242.37 -51.2092 1288.95 4.39837C1335.47 59.9284 1353.51 129.31 1324.32 214.149Z" stroke="#FF4D3E" stroke-width="2.5"/>
<path d="M1403.56 188.368C1388.89 230.985 1374.98 266.732 1359.71 295.48C1344.44 324.227 1327.85 345.898 1307.86 360.434C1267.98 389.436 1214.13 390.334 1128.97 361.032C1086.2 346.317 1032.38 337.922 976.73 330.933C961.544 329.026 946.223 327.224 930.947 325.427C890.187 320.632 849.752 315.876 813.09 309.27C762.654 300.181 719.646 287.633 692.905 266.866C679.568 256.509 670.322 244.141 666.185 229.164C662.046 214.179 662.983 196.446 670.259 175.301C699.484 90.3592 779.784 -5.15331 874.14 -72.1111C968.543 -139.103 1076.57 -177.205 1161.24 -148.072C1246.41 -118.77 1321.6 -76.9907 1368.19 -21.3831C1414.7 34.147 1432.75 103.529 1403.56 188.368Z" stroke="#FF4D3E" stroke-width="2.5"/>
</g>
</svg>
