<svg width="1483" height="785" viewBox="0 0 1483 785" fill="none" xmlns="http://www.w3.org/2000/svg">
<g opacity="0.2">
<path d="M542.272 214.583C630.951 245.094 709.256 288.599 757.766 346.508C806.21 404.339 825.001 476.599 794.602 564.951C779.335 609.325 764.849 646.548 748.946 676.484C733.043 706.419 715.763 728.991 694.945 744.132C653.403 774.345 597.313 775.273 508.635 744.762C464.111 729.443 408.08 720.702 350.134 713.425C292.135 706.141 232.229 700.325 179.749 690.868C127.235 681.405 82.4433 668.339 54.5894 646.708C40.696 635.919 31.0621 623.032 26.751 607.425C22.4377 591.81 23.4152 573.336 30.9929 551.312C61.427 462.857 145.045 363.401 243.294 293.68C341.591 223.926 454.086 184.241 542.272 214.583Z" stroke="#FF4D3E" stroke-width="2.5"/>
<path d="M606.029 191.398C691.195 220.701 766.392 262.48 812.973 318.088C859.49 373.618 877.534 442.999 848.344 527.838C833.681 570.455 819.769 606.203 804.497 634.951C789.226 663.697 772.634 685.369 752.649 699.904C712.771 728.907 658.921 729.804 573.756 700.502C530.989 685.787 477.17 677.392 421.519 670.403C365.813 663.407 308.28 657.822 257.879 648.74C207.443 639.651 164.433 627.104 137.692 606.337C124.355 595.979 115.11 583.611 110.973 568.634C106.833 553.649 107.771 535.917 115.046 514.771C144.272 429.83 224.573 334.317 318.928 267.359C413.331 200.368 521.357 162.266 606.029 191.398Z" stroke="#FF4D3E" stroke-width="2.5"/>
<path d="M685.263 165.616C770.429 194.919 845.626 236.699 892.207 292.306C938.723 347.836 956.767 417.218 927.578 502.056C912.914 544.674 899.003 580.421 883.731 609.169C868.46 637.916 851.868 659.587 831.882 674.122C792.004 703.125 738.155 704.023 652.99 674.721C610.223 660.006 556.404 651.61 500.752 644.622C445.047 637.626 387.513 632.04 337.113 622.958C286.677 613.87 243.667 601.322 216.926 580.555C203.589 570.198 194.344 557.83 190.207 542.853C186.067 527.868 187.005 510.135 194.28 488.99C223.506 404.049 303.806 308.535 398.162 241.577C492.565 174.586 600.591 136.484 685.263 165.616Z" stroke="#FF4D3E" stroke-width="2.5"/>
<path d="M764.496 139.835C849.663 169.138 924.859 210.917 971.44 266.525C1017.96 322.055 1036 391.437 1006.81 476.275C992.148 518.892 978.236 554.64 962.964 583.388C947.693 612.135 931.101 633.806 911.116 648.341C871.238 677.344 817.388 678.241 732.224 648.939C689.456 634.224 635.638 625.829 579.986 618.84C524.28 611.845 466.747 606.259 416.346 597.177C365.91 588.088 322.901 575.541 296.16 554.774C282.823 544.416 273.577 532.048 269.44 517.071C265.301 502.086 266.238 484.354 273.514 463.208C302.739 378.267 383.04 282.754 477.396 215.796C571.798 148.805 679.824 110.703 764.496 139.835Z" stroke="#FF4D3E" stroke-width="2.5"/>
<path d="M843.73 114.054C928.896 143.356 1004.09 185.136 1050.67 240.743C1097.19 296.273 1115.23 365.655 1086.04 450.493C1071.38 493.111 1057.47 528.859 1042.2 557.606C1026.93 586.353 1010.34 608.024 990.35 622.56C950.472 651.562 896.622 652.46 811.458 623.158C768.69 608.443 714.872 600.047 659.22 593.059C603.514 586.063 545.981 580.477 495.58 571.395C445.144 562.307 402.135 549.759 375.393 528.992C362.056 518.635 352.811 506.267 348.674 491.29C344.535 476.305 345.472 458.573 352.748 437.427C381.973 352.486 462.274 256.972 556.629 190.014C651.032 123.023 759.058 84.9211 843.73 114.054Z" stroke="#FF4D3E" stroke-width="2.5"/>
<path d="M922.964 88.2721C1008.13 117.575 1083.33 159.354 1129.91 214.962C1176.42 270.492 1194.47 339.874 1165.28 424.712C1150.62 467.329 1136.7 503.077 1121.43 531.825C1106.16 560.572 1089.57 582.243 1069.58 596.778C1029.71 625.781 975.856 626.678 890.691 597.376C847.923 582.661 794.105 574.266 738.453 567.277C682.747 560.282 625.214 554.696 574.813 545.614C524.377 536.525 481.368 523.978 454.627 503.211C441.29 492.853 432.044 480.485 427.907 465.508C423.768 450.523 424.706 432.791 431.981 411.645C461.206 326.704 541.507 231.191 635.863 164.233C730.266 97.2418 838.292 59.1397 922.964 88.2721Z" stroke="#FF4D3E" stroke-width="2.5"/>
<path d="M1002.2 62.4906C1087.36 91.7932 1162.56 133.573 1209.14 189.18C1255.66 244.71 1273.7 314.092 1244.51 398.93C1229.85 441.548 1215.94 477.296 1200.67 506.043C1185.39 534.79 1168.8 556.461 1148.82 570.997C1108.94 599.999 1055.09 600.897 969.925 571.595C927.157 556.88 873.339 548.484 817.687 541.496C761.981 534.5 704.448 528.914 654.047 519.832C603.611 510.744 560.602 498.196 533.861 477.429C520.524 467.072 511.278 454.704 507.141 439.727C503.002 424.742 503.94 407.01 511.215 385.864C540.44 300.923 620.741 205.409 715.097 138.451C809.5 71.4603 917.526 33.3582 1002.2 62.4906Z" stroke="#FF4D3E" stroke-width="2.5"/>
<path d="M1081.43 36.7091C1166.6 66.0118 1241.79 107.791 1288.38 163.399C1334.89 218.929 1352.94 288.311 1323.75 373.149C1309.08 415.766 1295.17 451.514 1279.9 480.262C1264.63 509.009 1248.04 530.68 1228.05 545.215C1188.17 574.218 1134.32 575.115 1049.16 545.813C1006.39 531.098 952.572 522.703 896.92 515.714C841.214 508.719 783.681 503.133 733.28 494.051C682.845 484.962 639.835 472.415 613.094 451.648C599.757 441.29 590.512 428.922 586.374 413.945C582.235 398.96 583.173 381.228 590.448 360.082C619.674 275.141 699.974 179.628 794.33 112.67C888.733 45.6788 996.759 7.57666 1081.43 36.7091Z" stroke="#FF4D3E" stroke-width="2.5"/>
<path d="M1160.66 10.9276C1245.83 40.2303 1321.03 82.0098 1367.61 137.617C1414.13 193.147 1432.17 262.529 1402.98 347.368C1388.32 389.985 1374.4 425.733 1359.13 454.48C1343.86 483.227 1327.27 504.898 1307.28 519.434C1267.41 548.436 1213.56 549.334 1128.39 520.032C1085.62 505.317 1031.81 496.922 976.154 489.933C920.448 482.937 862.915 477.352 812.514 468.269C762.078 459.181 719.069 446.633 692.328 425.866C678.991 415.509 669.745 403.141 665.608 388.164C661.469 373.179 662.407 355.447 669.682 334.301C698.908 249.36 779.208 153.846 873.564 86.8885C967.967 19.8973 1075.99 -18.2048 1160.66 10.9276Z" stroke="#FF4D3E" stroke-width="2.5"/>
</g>
</svg>
