<svg width="25" height="20" viewBox="0 0 25 20" fill="none" xmlns="http://www.w3.org/2000/svg">
<path d="M22.6562 19.375H2.34375C1.04932 19.375 0 18.3257 0 17.0312V2.96875C0 1.67432 1.04932 0.625 2.34375 0.625H22.6562C23.9507 0.625 25 1.67432 25 2.96875V17.0312C25 18.3257 23.9507 19.375 22.6562 19.375ZM5.46875 3.35938C3.95859 3.35938 2.73438 4.58359 2.73438 6.09375C2.73438 7.60391 3.95859 8.82812 5.46875 8.82812C6.97891 8.82812 8.20312 7.60391 8.20312 6.09375C8.20312 4.58359 6.97891 3.35938 5.46875 3.35938ZM3.125 16.25H21.875V10.7812L17.6018 6.50806C17.373 6.27925 17.002 6.27925 16.7731 6.50806L10.1562 13.125L7.44556 10.4143C7.21675 10.1855 6.84575 10.1855 6.61689 10.4143L3.125 13.9062V16.25Z" fill="white"/>
</svg>
